# xmcd
#
# Track frame offsets: 
#        150
#        10347
#        22656
#        31828
#        42506
#        53921
#        64158
#        74026
#        84203
#        94487
#        104332
#        113874
#        124558
#        135276
#        145774
#        155949
#        166733
#        177757
#        187881
#        198340
#        207716
#        217818
#        228596
#        238599
#        251775
#        261409
#        271299
#        282144
#        292714
#        305246
#        316605
#        327766
#
# Disc length: 4517 seconds
#
# Revision: 0
# Processed by: cddbd v1.5.2PL0 Copyright (c) Steve Scherf et al.
# Submitted via: ExactAudioCopy v0.95b3
#
DISCID=cb11a320
DTITLE=Chet Atkins  - The Early Years 1946- 1957 [Best of] - Disc 3  F
DTITLE=LAC
DYEAR=1900
DGENRE=
TTITLE0=Dream Train - Chet Atkins and His Galloping Guitar
TTITLE1=Meet Mister Callaghan - Chet Atkins and His Galloping Guitar
TTITLE2=Chinatown, My Chinatown - Chet Atkins and His Galloping Guitar
TTITLE3=High Rockin' Swing - Chet Atkins and His Galloping Guitar
TTITLE4=Pig Leaf Rag - Chet Atkins and His Galloping Guitar
TTITLE5=Oh by Jingo - Chet Atkins and His Galloping Guitar
TTITLE6=Hello Ma Baby - Chet Atkins and His Galloping Guitar
TTITLE7=Bells of St Mary's - Chet Atkins and His Galloping Guitar
TTITLE8=Country Gentlemen - Chet Atkins and His Galloping Guitar
TTITLE9=Memphis Blues - Chet Atkins and His Galloping Guitar
TTITLE10=Alice Blue Gown - Chet Atkins and His Galloping Guitar
TTITLE11=Twelfth Street Rag - Chet Atkins and His Galloping Guitar
TTITLE12=Peeping Tom - Chet Atkins and His Galloping Guitar
TTITLE13=Three O'Clock in the Morning - Chet Atkins and His Galloping Gu
TTITLE13=itar
TTITLE14=Georgia Camp Meeting - Chet Atkins and His Galloping Guitar
TTITLE15=City Slicker - Chet Atkins and His Galloping Guitar
TTITLE16=Dill Pickle Rag - Chet Atkins and His Galloping Guitar
TTITLE17=Rubber Doll Rag - Chet Atkins and His Galloping Guitar
TTITLE18=Beautiful Ohio - Chet Atkins and His Galloping Guitar
TTITLE19=Kentucky Derby - Chet Atkins and His Galloping Guitar
TTITLE20=Wildwood Flower - Chet Atkins and His Galloping Guitar
TTITLE21=Guitars on Parade - Chet Atkins and His Galloping Guitar
TTITLE22=Simple Simon - Chet Atkins and His Galloping Guitar
TTITLE23=Get Up and Go - Chet Atkins and His Galloping Guitar
TTITLE24=Pagan Love Song - Chet Atkins and His Galloping Guitar
TTITLE25=Beautiful Ohio - Chet Atkins and His Galloping Guitar
TTITLE26=Downhill Drag - Chet Atkins and His Galloping Guitar
TTITLE27=Avalon - Chet Atkins and His Galloping Guitar
TTITLE28=Sunrise Serenade - Chet Atkins and His Galloping Guitar
TTITLE29=San Antonio Rose - Chet Atkins
TTITLE30=Set a Spell - Chet Atkins
TTITLE31=Mister Misery - Chet Atkins
EXTD=
EXTT0=
EXTT1=
EXTT2=
EXTT3=
EXTT4=
EXTT5=
EXTT6=
EXTT7=
EXTT8=
EXTT9=
EXTT10=
EXTT11=
EXTT12=
EXTT13=
EXTT14=
EXTT15=
EXTT16=
EXTT17=
EXTT18=
EXTT19=
EXTT20=
EXTT21=
EXTT22=
EXTT23=
EXTT24=
EXTT25=
EXTT26=
EXTT27=
EXTT28=
EXTT29=
EXTT30=
EXTT31=
PLAYORDER=
